<mxfile host="app.diagrams.net" modified="2023-10-10T09:09:30.904Z" agent="Mozilla/5.0 (X11; Linux x86_64) AppleWebKit/537.36 (KHTML, like Gecko) Chrome/99.0.4844.51 Safari/537.36" version="22.0.4" etag="tfQ8ZJzHBReXx34XNltK" type="github">
  <diagram name="第 1 页" id="WGBhoRD8diL3t2J0cVxQ">
    <mxGraphModel>
      <root>
        <mxCell id="0" />
        <mxCell id="1" parent="0" />
      </root>
    </mxGraphModel>
  </diagram>
</mxfile>
